<?xml version="1.0" encoding="UTF-8"?>
<svg version="1.1" viewBox="0 0 32 32" xmlns="http://www.w3.org/2000/svg">
 <defs>
  <linearGradient id="a" x1="1" x2="31" y1="1" y2="31" gradientTransform="matrix(1.0667 0 0 1.0667 -1.0667 -1.0667)" gradientUnits="userSpaceOnUse">
   <stop stop-color="#6366f1" offset="0"/>
   <stop stop-color="#8b5cf6" offset="1"/>
  </linearGradient>
 </defs>
 <g transform="matrix(.91948 0 0 .91948 1.2883 1.2883)">
  <circle cx="16" cy="16" r="16" fill="url(#a)" stroke-width="1.0667"/>
  <circle cx="16" cy="16" r="9" fill="#fff" opacity=".95"/>
  <line x1="16" x2="16" y1="16.087" y2="11.087" stroke="#6366f1" stroke-linecap="round" stroke-width="1.5"/>
  <line x1="16.383" x2="19.383" y1="16" y2="16" stroke="#8b5cf6" stroke-linecap="round" stroke-width="1.5"/>
  <circle cx="16" cy="16" r="1.2" fill="#6366f1"/>
  <g stroke="#8b5cf6" stroke-linecap="round">
   <line x1="22.286" x2="22.786" y1="16" y2="16"/>
   <line x1="9.2135" x2="9.7135" y1="16" y2="16"/>
   <line x1="16" x2="16" y1="22.79" y2="22.29"/>
   <line x1="16" x2="16" y1="9.7024" y2="9.2024"/>
  </g>
  <circle cx="16" cy="16" r="8" fill="none" stroke="#6366f1" stroke-width="1.5"/>
  <path d="m15 4.8174c-0.277 0-0.5 0.223-0.5 0.5v1c0 0.277 0.223 0.5 0.5 0.5h0.25v1a0.75 0.75 0 0 0 0.75 0.75 0.75 0.75 0 0 0 0.75-0.75v-1h0.25c0.277 0 0.5-0.223 0.5-0.5v-1c0-0.277-0.223-0.5-0.5-0.5z" fill="#fff" opacity=".95"/>
 </g>
</svg>
